<svg xmlns="http://www.w3.org/2000/svg" version="1.1" xmlns:xlink="http://www.w3.org/1999/xlink" xmlns:svgjs="http://svgjs.dev/svgjs" width="1000" height="1000"><style>
    #light-icon {
      display: inline;
    }
    #dark-icon {
      display: none;
    }

    @media (prefers-color-scheme: dark) {
      #light-icon {
        display: none;
      }
      #dark-icon {
        display: inline;
      }
    }
  </style><g id="light-icon"><svg xmlns="http://www.w3.org/2000/svg" version="1.1" xmlns:xlink="http://www.w3.org/1999/xlink" xmlns:svgjs="http://svgjs.dev/svgjs" width="1000" height="1000"><g><g transform="matrix(10,0,0,10,0,0)" style="filter: contrast(1) brightness(0.2)"><svg xmlns="http://www.w3.org/2000/svg" version="1.1" xmlns:xlink="http://www.w3.org/1999/xlink" xmlns:svgjs="http://svgjs.dev/svgjs" width="100" height="100"><svg width="100" height="100" viewBox="0 0 24 24" fill="none" xmlns="http://www.w3.org/2000/svg" stroke="currentColor" stroke-width="2" stroke-linecap="round" stroke-linejoin="round">

    <rect x="4" y="7" width="16" height="10" rx="2" ry="2" stroke="currentColor" fill="none"></rect>

    <path d="M6 17H18V21H6V17Z" stroke="currentColor" fill="none"></path>

    <path d="M8 7V3H16V7" stroke="currentColor" fill="none"></path>
    
  
    <line x1="8" y1="13" x2="16" y2="13" stroke="currentColor"></line>

    <line x1="8" y1="19" x2="16" y2="19" stroke="currentColor"></line>
</svg></svg></g></g></svg></g><g id="dark-icon"><svg xmlns="http://www.w3.org/2000/svg" version="1.1" xmlns:xlink="http://www.w3.org/1999/xlink" xmlns:svgjs="http://svgjs.dev/svgjs" width="1000" height="1000"><g clip-path="url(#SvgjsClipPath1057)"><rect width="1000" height="1000" fill="#ffffff"></rect><g transform="matrix(8,0,0,8,100,100)"><svg xmlns="http://www.w3.org/2000/svg" version="1.1" xmlns:xlink="http://www.w3.org/1999/xlink" xmlns:svgjs="http://svgjs.dev/svgjs" width="100" height="100"><svg width="100" height="100" viewBox="0 0 24 24" fill="none" xmlns="http://www.w3.org/2000/svg" stroke="currentColor" stroke-width="2" stroke-linecap="round" stroke-linejoin="round">

    <rect x="4" y="7" width="16" height="10" rx="2" ry="2" stroke="currentColor" fill="none"></rect>

    <path d="M6 17H18V21H6V17Z" stroke="currentColor" fill="none"></path>

    <path d="M8 7V3H16V7" stroke="currentColor" fill="none"></path>
    
  
    <line x1="8" y1="13" x2="16" y2="13" stroke="currentColor"></line>

    <line x1="8" y1="19" x2="16" y2="19" stroke="currentColor"></line>
</svg></svg></g></g><defs><clipPath id="SvgjsClipPath1057"><rect width="1000" height="1000" x="0" y="0" rx="500" ry="500"></rect></clipPath></defs></svg></g></svg>